; Drill file
; Format: 2.4 (00.0000)
M48
INCH
T01C0.0118
T02C0.0157
T03C0.0787
%
G05
G90
T01
X-016140Y001570
X-015830Y002720
X-014570Y002720
X-014020Y001540
X-018270Y007830
X-018980Y007950
X-005160Y003310
T02
X-019690Y007400
X-021810Y008430
X-019690Y009780
X-017950Y009060
X-014370Y006890
X-014020Y006890
X-014020Y006540
X-014370Y006540
X-013660Y007400
X-012200Y007400
X-011690Y007400
X-010670Y007400
X-009210Y007400
X-008700Y007400
X-007240Y007400
X-003900Y006420
X-002910Y002910
X-010670Y005120
X-011690Y004020
X-012200Y004490
X-014020Y004610
X-014370Y004610
X-014370Y004210
X-014020Y004210
T03
X-015550Y004330
X-007320Y004330
M30
