%FSLAX34Y34*%
%MOMM*%
%LNCOPPER_BOTTOM*%
G71*
G01*
%ADD10C, 0.00*%
%ADD11C, 0.21*%
%ADD12C, 0.30*%
%ADD13C, 0.20*%
%ADD14C, 0.40*%
%ADD15C, 0.17*%
%LPD*%
G54D10*
X-580000Y283000D02*
X0Y283000D01*
X0Y0D01*
X-580000Y0D01*
X-580000Y283000D01*
G54D11*
X-557092Y85466D02*
X-557092Y85466D01*
G54D12*
X-110959Y211205D02*
X-58959Y211205D01*
X-58959Y175205D01*
X-110959Y175205D01*
X-114959Y175205D01*
X-114959Y211205D01*
X-109959Y211205D01*
G54D13*
G75*
G01X-51959Y49205D02*
G03X-51959Y49205I-35000J0D01*
G01*
G54D13*
X-109959Y175205D02*
X-109959Y76205D01*
G54D13*
X-63959Y174205D02*
X-63959Y77205D01*
G54D11*
X-58959Y211205D02*
X-58959Y211205D01*
G54D11*
X-58959Y175205D02*
X-58959Y175205D01*
G54D12*
X-28931Y251214D02*
X-28931Y218214D01*
X-60931Y218214D01*
X-60931Y251214D01*
X-28931Y251214D01*
G54D13*
X-28931Y220214D02*
X-28931Y228214D01*
X-20931Y236214D01*
G54D11*
X-28931Y251214D02*
X-28931Y251214D01*
G54D11*
X-28931Y218214D02*
X-28931Y218214D01*
G54D12*
X-551601Y198948D02*
X-551601Y231948D01*
X-519601Y231948D01*
X-519601Y198948D01*
X-551601Y198948D01*
G54D13*
X-551601Y229948D02*
X-551601Y221948D01*
X-559601Y213948D01*
G54D11*
X-551601Y231948D02*
X-551601Y231948D01*
G54D11*
X-551601Y198948D02*
X-551601Y198948D01*
G54D12*
X-499091Y7466D02*
X-499091Y85466D01*
X-557092Y85466D01*
X-557092Y7466D01*
X-499091Y7466D01*
G54D11*
X-499591Y57966D02*
X-499591Y57966D01*
G54D11*
X-499091Y85466D02*
X-499091Y85466D01*
G54D12*
X-335000Y82000D02*
X-426000Y82000D01*
X-426000Y23000D01*
X-335000Y23000D01*
X-335000Y82000D01*
G54D11*
X-378500Y82500D02*
X-378500Y82500D01*
G54D11*
X-426000Y82000D02*
X-426000Y82000D01*
G54D14*
X-180000Y70000D02*
X-180000Y1000D01*
X-180000Y70000D01*
X-290000Y70000D01*
X-290000Y50000D01*
G54D14*
X-320000Y1000D02*
X-320000Y21000D01*
G54D14*
G75*
G01X-291000Y50000D02*
G03X-320000Y21000I0J-29000D01*
G01*
G54D15*
X-48388Y182879D02*
X-45388Y181212D01*
X-44388Y179546D01*
X-44388Y176212D01*
G54D15*
X-52388Y176212D02*
X-52388Y189546D01*
X-47388Y189546D01*
X-45388Y188712D01*
X-44388Y187046D01*
X-44388Y185379D01*
X-45388Y183712D01*
X-47388Y182879D01*
X-52388Y182879D01*
G54D15*
X-40720Y184546D02*
X-35720Y189546D01*
X-35720Y176212D01*
G54D15*
X-571500Y245388D02*
X-570500Y243721D01*
X-568500Y242888D01*
X-566500Y242888D01*
X-564500Y243721D01*
X-563500Y245388D01*
X-563500Y247054D01*
X-564500Y248721D01*
X-566500Y249554D01*
X-568500Y249554D01*
X-570500Y250388D01*
X-571500Y252054D01*
X-571500Y253721D01*
X-570500Y255388D01*
X-568500Y256221D01*
X-566500Y256221D01*
X-564500Y255388D01*
X-563500Y253721D01*
G54D15*
X-559833Y251221D02*
X-554833Y256221D01*
X-554833Y242888D01*
G54D15*
X-28575Y262850D02*
X-27575Y261183D01*
X-25575Y260350D01*
X-23575Y260350D01*
X-21575Y261183D01*
X-20575Y262850D01*
X-20575Y264517D01*
X-21575Y266183D01*
X-23575Y267017D01*
X-25575Y267017D01*
X-27575Y267850D01*
X-28575Y269517D01*
X-28575Y271183D01*
X-27575Y272850D01*
X-25575Y273683D01*
X-23575Y273683D01*
X-21575Y272850D01*
X-20575Y271183D01*
G54D15*
X-8908Y260350D02*
X-16908Y260350D01*
X-16908Y261183D01*
X-15908Y262850D01*
X-9908Y267850D01*
X-8908Y269517D01*
X-8908Y271183D01*
X-9908Y272850D01*
X-11908Y273683D01*
X-13908Y273683D01*
X-15908Y272850D01*
X-16908Y271183D01*
G54D15*
X-492125Y63500D02*
X-492125Y76833D01*
X-487125Y76833D01*
X-485125Y76000D01*
X-484125Y74333D01*
X-484125Y66000D01*
X-485125Y64333D01*
X-487125Y63500D01*
X-492125Y63500D01*
G54D15*
X-472458Y63500D02*
X-480458Y63500D01*
X-480458Y64333D01*
X-479458Y66000D01*
X-473458Y71000D01*
X-472458Y72667D01*
X-472458Y74333D01*
X-473458Y76000D01*
X-475458Y76833D01*
X-477458Y76833D01*
X-479458Y76000D01*
X-480458Y74333D01*
G54D15*
X-327025Y63500D02*
X-327025Y76833D01*
X-322025Y76833D01*
X-320025Y76000D01*
X-319025Y74333D01*
X-319025Y72667D01*
X-320025Y71000D01*
X-322025Y70167D01*
X-327025Y70167D01*
G54D15*
X-315358Y76833D02*
X-307358Y76833D01*
X-308358Y75167D01*
X-310358Y72667D01*
X-312358Y69333D01*
X-313358Y66833D01*
X-313358Y63500D01*
M02*
