%FSLAX34Y34*%
%MOMM*%
%LNSOLDERMASK_TOP*%
G71*
G01*
%ADD10C, 0.00*%
%ADD11R, 1.70X2.20*%
%ADD12R, 1.10X1.10*%
%ADD13R, 1.10X1.30*%
%ADD14R, 3.20X2.30*%
%ADD15R, 1.50X1.00*%
%ADD16R, 2.30X3.20*%
%ADD17R, 1.00X1.50*%
%ADD18C, 1.10*%
%ADD19C, 0.80*%
%ADD20C, 1.00*%
%LPD*%
G54D10*
X-580000Y283000D02*
X0Y283000D01*
X0Y0D01*
X-580000Y0D01*
X-580000Y283000D01*
X-98959Y193205D02*
G54D11*
D03*
X-73959Y193205D02*
G54D11*
D03*
X-63931Y248214D02*
G54D12*
D03*
X-63931Y221214D02*
G54D12*
D03*
X-36931Y256214D02*
G54D13*
D03*
X-36931Y213214D02*
G54D13*
D03*
X-516601Y201948D02*
G54D12*
D03*
X-516601Y228948D02*
G54D12*
D03*
X-543601Y193948D02*
G54D13*
D03*
X-543601Y236948D02*
G54D13*
D03*
X-521092Y14466D02*
G54D14*
D03*
X-521092Y14466D02*
G54D14*
D03*
X-521091Y78466D02*
G54D14*
D03*
X-561092Y52466D02*
G54D15*
D03*
X-561092Y40466D02*
G54D15*
D03*
X-342000Y60000D02*
G54D16*
D03*
X-342000Y60000D02*
G54D16*
D03*
X-419000Y60000D02*
G54D16*
D03*
X-382000Y20000D02*
G54D17*
D03*
X-394000Y20000D02*
G54D17*
D03*
X-370000Y20000D02*
G54D17*
D03*
X-500000Y188000D02*
G54D18*
D03*
X-347000Y188000D02*
G54D18*
D03*
X-356000Y39000D02*
G54D19*
D03*
X-271000Y188000D02*
G54D18*
D03*
X-271000Y130000D02*
G54D18*
D03*
X-184000Y188000D02*
G54D18*
D03*
X-500000Y248428D02*
G54D20*
D03*
X-234000Y188000D02*
G54D18*
D03*
X-221000Y188000D02*
G54D18*
D03*
X-456000Y230000D02*
G54D18*
D03*
X-554000Y214000D02*
G54D18*
D03*
X-310000Y188000D02*
G54D18*
D03*
X-73959Y74041D02*
G54D18*
D03*
X-98959Y163041D02*
G54D18*
D03*
X-370000Y69000D02*
G54D19*
D03*
X-131000Y84000D02*
G54D19*
D03*
X-402000Y69000D02*
G54D19*
D03*
X-410000Y40000D02*
G54D19*
D03*
X-482000Y202000D02*
G54D19*
D03*
X-464000Y199000D02*
G54D19*
D03*
X-297000Y188000D02*
G54D18*
D03*
X-310000Y114000D02*
G54D18*
D03*
X-297000Y102000D02*
G54D18*
D03*
X-365000Y175000D02*
G54D18*
D03*
X-356000Y175000D02*
G54D18*
D03*
X-365000Y166000D02*
G54D18*
D03*
X-356000Y166000D02*
G54D18*
D03*
X-365000Y107000D02*
G54D18*
D03*
X-356000Y107000D02*
G54D18*
D03*
X-365000Y117000D02*
G54D18*
D03*
X-356000Y117000D02*
G54D18*
D03*
M02*
