%FSLAX34Y34*%
%MOMM*%
%LNSOLDERMASK_TOP*%
G71*
G01*
%ADD10C, 0.00*%
%ADD11R, 1.40X2.00*%
%ADD12R, 0.80X1.80*%
%ADD13C, 4.10*%
%ADD14R, 3.20X0.80*%
%LPD*%
G54D10*
X0Y350000D02*
X480000Y350000D01*
X480000Y0D01*
X0Y0D01*
X0Y350000D01*
X452000Y308000D02*
G54D11*
D03*
X236000Y308000D02*
G54D11*
D03*
X439000Y251000D02*
G54D12*
D03*
X429000Y251000D02*
G54D12*
D03*
X419000Y251000D02*
G54D12*
D03*
X409000Y251000D02*
G54D12*
D03*
X399000Y251000D02*
G54D12*
D03*
X389000Y251000D02*
G54D12*
D03*
X379000Y251000D02*
G54D12*
D03*
X369000Y251000D02*
G54D12*
D03*
X359000Y251000D02*
G54D12*
D03*
X349000Y251000D02*
G54D12*
D03*
X339000Y251000D02*
G54D12*
D03*
X329000Y251000D02*
G54D12*
D03*
X319000Y251000D02*
G54D12*
D03*
X309000Y251000D02*
G54D12*
D03*
X299000Y251000D02*
G54D12*
D03*
X289000Y251000D02*
G54D12*
D03*
X279000Y251000D02*
G54D12*
D03*
X269000Y251000D02*
G54D12*
D03*
X259000Y251000D02*
G54D12*
D03*
X249000Y251000D02*
G54D12*
D03*
X302000Y111000D02*
G54D13*
D03*
X31000Y324000D02*
G54D14*
D03*
X31000Y311000D02*
G54D14*
D03*
X31000Y298000D02*
G54D14*
D03*
X31000Y285000D02*
G54D14*
D03*
X31000Y271000D02*
G54D14*
D03*
X31000Y258000D02*
G54D14*
D03*
X31000Y245000D02*
G54D14*
D03*
X31000Y232000D02*
G54D14*
D03*
X31000Y219000D02*
G54D14*
D03*
X31000Y205000D02*
G54D14*
D03*
X31000Y192000D02*
G54D14*
D03*
X31000Y179000D02*
G54D14*
D03*
X31000Y166000D02*
G54D14*
D03*
X31000Y153000D02*
G54D14*
D03*
X31000Y139000D02*
G54D14*
D03*
X31000Y126000D02*
G54D14*
D03*
X31000Y113000D02*
G54D14*
D03*
X31000Y100000D02*
G54D14*
D03*
X31000Y87000D02*
G54D14*
D03*
X31000Y73000D02*
G54D14*
D03*
M02*
