; Drill file
; Format: 3.2 (000.00)
M48
METRIC
T01C0.3
T02C0.4
T03C2
%
G05
G90
T01
X-04100Y00400
X-03940Y00650
X-04020Y00690
X-03560Y00390
X-04640Y01990
X-04820Y02020
X-01310Y00840
T02
X-05000Y01880
X-05540Y02140
X-05000Y02484
X-04560Y02300
X-03650Y01750
X-03560Y01750
X-03560Y01660
X-03650Y01660
X-03470Y01880
X-03100Y01880
X-02970Y01880
X-02710Y01880
X-02340Y01880
X-02210Y01880
X-01840Y01880
X-00990Y01630
X-00740Y00740
X-02710Y01300
X-02970Y01020
X-03100Y01140
X-03560Y01170
X-03650Y01170
X-03650Y01070
X-03560Y01070
T03
X-03950Y01100
X-01860Y01100
M30
