%FSLAX34Y34*%
%MOMM*%
%LNSMDMASK_TOP*%
G71*
G01*
%ADD10C, 0.00*%
%ADD11R, 0.80X3.20*%
%ADD12R, 1.10X8.20*%
%LPD*%
G54D10*
X-580000Y283000D02*
X0Y283000D01*
X0Y0D01*
X-580000Y0D01*
X-580000Y283000D01*
X-554000Y21000D02*
G54D11*
D03*
X-149000Y21000D02*
G54D11*
D03*
X-536000Y21000D02*
G54D11*
D03*
X-518000Y21000D02*
G54D11*
D03*
X-500000Y21000D02*
G54D11*
D03*
X-482000Y21000D02*
G54D11*
D03*
X-464000Y21000D02*
G54D11*
D03*
X-446000Y21000D02*
G54D11*
D03*
X-428000Y21000D02*
G54D11*
D03*
X-410000Y21000D02*
G54D11*
D03*
X-392000Y21000D02*
G54D11*
D03*
X-374000Y21000D02*
G54D11*
D03*
X-356000Y21000D02*
G54D11*
D03*
X-131000Y21000D02*
G54D11*
D03*
X-113000Y21000D02*
G54D11*
D03*
X-95000Y21000D02*
G54D11*
D03*
X-77000Y21000D02*
G54D11*
D03*
X-59000Y21000D02*
G54D11*
D03*
X-41000Y21000D02*
G54D11*
D03*
X-23000Y21000D02*
G54D11*
D03*
X-145000Y235000D02*
G54D12*
D03*
X-158000Y235000D02*
G54D12*
D03*
X-171000Y235000D02*
G54D12*
D03*
X-184000Y235000D02*
G54D12*
D03*
X-208000Y235000D02*
G54D12*
D03*
X-221000Y235000D02*
G54D12*
D03*
X-234000Y235000D02*
G54D12*
D03*
X-247000Y235000D02*
G54D12*
D03*
X-271000Y235000D02*
G54D12*
D03*
X-284000Y235000D02*
G54D12*
D03*
X-297000Y235000D02*
G54D12*
D03*
X-310000Y235000D02*
G54D12*
D03*
X-334000Y235000D02*
G54D12*
D03*
X-347000Y235000D02*
G54D12*
D03*
X-360000Y235000D02*
G54D12*
D03*
X-373000Y235000D02*
G54D12*
D03*
X-397000Y235000D02*
G54D12*
D03*
X-410000Y235000D02*
G54D12*
D03*
X-423000Y235000D02*
G54D12*
D03*
X-436000Y235000D02*
G54D12*
D03*
M02*
