%FSLAX34Y34*%
%MOMM*%
%LNSILK_BOTTOM_*%
G71*
G01*
%ADD10C, 0.00*%
%ADD11C, 0.40*%
%ADD12C, 0.11*%
%ADD13C, 0.80*%
%ADD14C, 0.33*%
%ADD15C, 0.21*%
%ADD16C, 0.22*%
%LPD*%
G54D10*
X-580000Y283000D02*
X0Y283000D01*
X0Y0D01*
X-580000Y0D01*
X-580000Y283000D01*
G54D11*
X-180000Y70000D02*
X-180000Y1000D01*
X-180000Y70000D01*
X-290000Y70000D01*
X-290000Y50000D01*
G54D11*
X-320000Y1000D02*
X-320000Y21000D01*
G54D11*
G75*
G01X-291000Y50000D02*
G03X-320000Y21000I0J-29000D01*
G01*
G54D12*
X-20000Y52556D02*
X-23333Y55889D01*
X-23333Y47000D01*
G54D12*
X-44333Y47000D02*
X-39000Y47000D01*
X-39000Y47556D01*
X-39667Y48667D01*
X-43667Y52000D01*
X-44333Y53111D01*
X-44333Y54222D01*
X-43667Y55333D01*
X-42333Y55889D01*
X-41000Y55889D01*
X-39667Y55333D01*
X-39000Y54222D01*
G54D12*
X-56000Y54222D02*
X-56667Y55333D01*
X-58000Y55889D01*
X-59333Y55889D01*
X-60667Y55333D01*
X-61333Y54222D01*
X-61333Y53111D01*
X-60667Y52000D01*
X-59333Y51444D01*
X-60667Y50889D01*
X-61333Y49778D01*
X-61333Y48667D01*
X-60667Y47556D01*
X-59333Y47000D01*
X-58000Y47000D01*
X-56667Y47556D01*
X-56000Y48667D01*
G54D12*
X-79000Y47000D02*
X-79000Y55889D01*
X-75000Y50333D01*
X-75000Y49222D01*
X-80333Y49222D01*
G54D12*
X-98333Y55889D02*
X-93000Y55889D01*
X-93000Y52000D01*
X-93667Y52000D01*
X-95000Y52556D01*
X-96333Y52556D01*
X-97667Y52000D01*
X-98333Y50889D01*
X-98333Y48667D01*
X-97667Y47556D01*
X-96333Y47000D01*
X-95000Y47000D01*
X-93667Y47556D01*
X-93000Y48667D01*
G54D12*
X-115333Y54222D02*
X-114667Y55333D01*
X-113333Y55889D01*
X-112000Y55889D01*
X-110667Y55333D01*
X-110000Y54222D01*
X-110000Y51444D01*
X-110000Y50889D01*
X-112000Y52000D01*
X-113333Y52000D01*
X-114667Y51444D01*
X-115333Y50333D01*
X-115333Y48667D01*
X-114667Y47556D01*
X-113333Y47000D01*
X-112000Y47000D01*
X-110667Y47556D01*
X-110000Y48667D01*
X-110000Y51444D01*
G54D12*
X-129000Y55889D02*
X-134333Y55889D01*
X-133667Y54778D01*
X-132333Y53111D01*
X-131000Y50889D01*
X-130333Y49222D01*
X-130333Y47000D01*
G54D12*
X-150333Y51444D02*
X-149000Y51444D01*
X-147667Y52000D01*
X-147000Y53111D01*
X-147000Y54222D01*
X-147667Y55333D01*
X-149000Y55889D01*
X-150333Y55889D01*
X-151667Y55333D01*
X-152333Y54222D01*
X-152333Y53111D01*
X-151667Y52000D01*
X-150333Y51444D01*
X-151667Y50889D01*
X-152333Y49778D01*
X-152333Y48667D01*
X-151667Y47556D01*
X-150333Y47000D01*
X-149000Y47000D01*
X-147667Y47556D01*
X-147000Y48667D01*
X-147000Y49778D01*
X-147667Y50889D01*
X-149000Y51444D01*
G54D12*
X-353000Y48667D02*
X-353667Y47556D01*
X-355000Y47000D01*
X-356333Y47000D01*
X-357667Y47556D01*
X-358333Y48667D01*
X-358333Y51444D01*
X-358333Y52000D01*
X-356333Y50889D01*
X-355000Y50889D01*
X-353667Y51444D01*
X-353000Y52556D01*
X-353000Y54222D01*
X-353667Y55333D01*
X-355000Y55889D01*
X-356333Y55889D01*
X-357667Y55333D01*
X-358333Y54222D01*
X-358333Y51444D01*
G54D12*
X-367000Y52556D02*
X-370333Y55889D01*
X-370333Y47000D01*
G54D12*
X-378110Y54222D02*
X-378110Y48667D01*
X-377444Y47556D01*
X-376110Y47000D01*
X-374777Y47000D01*
X-373444Y47556D01*
X-372777Y48667D01*
X-372777Y54222D01*
X-373444Y55333D01*
X-374777Y55889D01*
X-376110Y55889D01*
X-377444Y55333D01*
X-378110Y54222D01*
G54D12*
X-386000Y52556D02*
X-389333Y55889D01*
X-389333Y47000D01*
G54D12*
X-391777Y52556D02*
X-395110Y55889D01*
X-395110Y47000D01*
G54D12*
X-403000Y52556D02*
X-406333Y55889D01*
X-406333Y47000D01*
G54D12*
X-414110Y47000D02*
X-408777Y47000D01*
X-408777Y47556D01*
X-409444Y48667D01*
X-413444Y52000D01*
X-414110Y53111D01*
X-414110Y54222D01*
X-413444Y55333D01*
X-412110Y55889D01*
X-410777Y55889D01*
X-409444Y55333D01*
X-408777Y54222D01*
G54D12*
X-421000Y52556D02*
X-424333Y55889D01*
X-424333Y47000D01*
G54D12*
X-426777Y54222D02*
X-427444Y55333D01*
X-428777Y55889D01*
X-430110Y55889D01*
X-431444Y55333D01*
X-432110Y54222D01*
X-432110Y53111D01*
X-431444Y52000D01*
X-430110Y51444D01*
X-431444Y50889D01*
X-432110Y49778D01*
X-432110Y48667D01*
X-431444Y47556D01*
X-430110Y47000D01*
X-428777Y47000D01*
X-427444Y47556D01*
X-426777Y48667D01*
G54D12*
X-439000Y52556D02*
X-442333Y55889D01*
X-442333Y47000D01*
G54D12*
X-448777Y47000D02*
X-448777Y55889D01*
X-444777Y50333D01*
X-444777Y49222D01*
X-450110Y49222D01*
G54D12*
X-457000Y52556D02*
X-460333Y55889D01*
X-460333Y47000D01*
G54D12*
X-468110Y55889D02*
X-462777Y55889D01*
X-462777Y52000D01*
X-463444Y52000D01*
X-464777Y52556D01*
X-466110Y52556D01*
X-467444Y52000D01*
X-468110Y50889D01*
X-468110Y48667D01*
X-467444Y47556D01*
X-466110Y47000D01*
X-464777Y47000D01*
X-463444Y47556D01*
X-462777Y48667D01*
G54D12*
X-475000Y52556D02*
X-478333Y55889D01*
X-478333Y47000D01*
G54D12*
X-486110Y54222D02*
X-485444Y55333D01*
X-484110Y55889D01*
X-482777Y55889D01*
X-481444Y55333D01*
X-480777Y54222D01*
X-480777Y51444D01*
X-480777Y50889D01*
X-482777Y52000D01*
X-484110Y52000D01*
X-485444Y51444D01*
X-486110Y50333D01*
X-486110Y48667D01*
X-485444Y47556D01*
X-484110Y47000D01*
X-482777Y47000D01*
X-481444Y47556D01*
X-480777Y48667D01*
X-480777Y51444D01*
G54D12*
X-495000Y52556D02*
X-498333Y55889D01*
X-498333Y47000D01*
G54D12*
X-500777Y55889D02*
X-506110Y55889D01*
X-505444Y54778D01*
X-504110Y53111D01*
X-502777Y50889D01*
X-502110Y49222D01*
X-502110Y47000D01*
G54D12*
X-511000Y52556D02*
X-514333Y55889D01*
X-514333Y47000D01*
G54D12*
X-520110Y51444D02*
X-518777Y51444D01*
X-517444Y52000D01*
X-516777Y53111D01*
X-516777Y54222D01*
X-517444Y55333D01*
X-518777Y55889D01*
X-520110Y55889D01*
X-521444Y55333D01*
X-522110Y54222D01*
X-522110Y53111D01*
X-521444Y52000D01*
X-520110Y51444D01*
X-521444Y50889D01*
X-522110Y49778D01*
X-522110Y48667D01*
X-521444Y47556D01*
X-520110Y47000D01*
X-518777Y47000D01*
X-517444Y47556D01*
X-516777Y48667D01*
X-516777Y49778D01*
X-517444Y50889D01*
X-518777Y51444D01*
G54D12*
X-529000Y52556D02*
X-532333Y55889D01*
X-532333Y47000D01*
G54D12*
X-534777Y48667D02*
X-535444Y47556D01*
X-536777Y47000D01*
X-538110Y47000D01*
X-539444Y47556D01*
X-540110Y48667D01*
X-540110Y51444D01*
X-540110Y52000D01*
X-538110Y50889D01*
X-536777Y50889D01*
X-535444Y51444D01*
X-534777Y52556D01*
X-534777Y54222D01*
X-535444Y55333D01*
X-536777Y55889D01*
X-538110Y55889D01*
X-539444Y55333D01*
X-540110Y54222D01*
X-540110Y51444D01*
G54D12*
X-552333Y47000D02*
X-547000Y47000D01*
X-547000Y47556D01*
X-547667Y48667D01*
X-551667Y52000D01*
X-552333Y53111D01*
X-552333Y54222D01*
X-551667Y55333D01*
X-550333Y55889D01*
X-549000Y55889D01*
X-547667Y55333D01*
X-547000Y54222D01*
G54D12*
X-560110Y54222D02*
X-560110Y48667D01*
X-559444Y47556D01*
X-558110Y47000D01*
X-556777Y47000D01*
X-555444Y47556D01*
X-554777Y48667D01*
X-554777Y54222D01*
X-555444Y55333D01*
X-556777Y55889D01*
X-558110Y55889D01*
X-559444Y55333D01*
X-560110Y54222D01*
G54D13*
G75*
G01X-171450Y110000D02*
G03X-171450Y110000I-14550J0D01*
G01*
G54D13*
G75*
G01X-380450Y110000D02*
G03X-380450Y110000I-14550J0D01*
G01*
G54D14*
X-146100Y150600D02*
X-146100Y177300D01*
X-156100Y177300D01*
X-160100Y175600D01*
X-162100Y172300D01*
X-162100Y168900D01*
X-160100Y165600D01*
X-156100Y163900D01*
X-146100Y163900D01*
G54D14*
X-169400Y167300D02*
X-179400Y177300D01*
X-179400Y150600D01*
G54D14*
X-206100Y150600D02*
X-206100Y177300D01*
X-216100Y177300D01*
X-220100Y175600D01*
X-222100Y172300D01*
X-222100Y168900D01*
X-220100Y165600D01*
X-216100Y163900D01*
X-206100Y163900D01*
G54D14*
X-245400Y150600D02*
X-229400Y150600D01*
X-229400Y152300D01*
X-231400Y155600D01*
X-243400Y165600D01*
X-245400Y168900D01*
X-245400Y172300D01*
X-243400Y175600D01*
X-239400Y177300D01*
X-235400Y177300D01*
X-231400Y175600D01*
X-229400Y172300D01*
G54D14*
X-270100Y150600D02*
X-270100Y177300D01*
X-280100Y177300D01*
X-284100Y175600D01*
X-286100Y172300D01*
X-286100Y168900D01*
X-284100Y165600D01*
X-280100Y163900D01*
X-270100Y163900D01*
G54D14*
X-293400Y172300D02*
X-295400Y175600D01*
X-299400Y177300D01*
X-303400Y177300D01*
X-307400Y175600D01*
X-309400Y172300D01*
X-309400Y168900D01*
X-307400Y165600D01*
X-303400Y163900D01*
X-307400Y162300D01*
X-309400Y158900D01*
X-309400Y155600D01*
X-307400Y152300D01*
X-303400Y150600D01*
X-299400Y150600D01*
X-295400Y152300D01*
X-293400Y155600D01*
G54D14*
X-335100Y151600D02*
X-335100Y178300D01*
X-345100Y178300D01*
X-349100Y176600D01*
X-351100Y173300D01*
X-351100Y169900D01*
X-349100Y166600D01*
X-345100Y164900D01*
X-335100Y164900D01*
G54D14*
X-370400Y151600D02*
X-370400Y178300D01*
X-358400Y161600D01*
X-358400Y158300D01*
X-374400Y158300D01*
G54D14*
X-397100Y150600D02*
X-397100Y177300D01*
X-407100Y177300D01*
X-411100Y175600D01*
X-413100Y172300D01*
X-413100Y168900D01*
X-411100Y165600D01*
X-407100Y163900D01*
X-397100Y163900D01*
G54D14*
X-436400Y177300D02*
X-420400Y177300D01*
X-420400Y165600D01*
X-422400Y165600D01*
X-426400Y167300D01*
X-430400Y167300D01*
X-434400Y165600D01*
X-436400Y162300D01*
X-436400Y155600D01*
X-434400Y152300D01*
X-430400Y150600D01*
X-426400Y150600D01*
X-422400Y152300D01*
X-420400Y155600D01*
G54D15*
X-397000Y170000D02*
X-397000Y170000D01*
G54D15*
X-434000Y166000D02*
X-434000Y166000D01*
G54D16*
X-53595Y239778D02*
X-60262Y222000D01*
X-66928Y239778D01*
G54D16*
X-82484Y222000D02*
X-71817Y222000D01*
X-71817Y223111D01*
X-73150Y225333D01*
X-81150Y232000D01*
X-82484Y234222D01*
X-82484Y236444D01*
X-81150Y238667D01*
X-78484Y239778D01*
X-75817Y239778D01*
X-73150Y238667D01*
X-71817Y236444D01*
G54D16*
X-87373Y222000D02*
X-87373Y222000D01*
G54D16*
X-92262Y233111D02*
X-98929Y239778D01*
X-98929Y222000D01*
M02*
